<?xml version="1.0" encoding="UTF-8"?>
<svg xmlns="http://www.w3.org/2000/svg" xmlns:xlink="http://www.w3.org/1999/xlink"
     width="908" height="1136" viewBox="0 0 908 1136">
<defs>
    <style>
        .header-text { font-family: Arial, sans-serif; font-size: 13px; font-weight: bold; fill: #333333; }
        .cell-text { font-family: Arial, sans-serif; font-size: 12px; fill: #333333; }
        .link-text { font-family: Arial, sans-serif; font-size: 12px; fill: #005EB8; cursor: pointer; }
        .not-used { font-family: Arial, sans-serif; font-size: 12px; fill: #999999; font-style: italic; }
        .todo { font-family: Arial, sans-serif; font-size: 12px; fill: #FF6600; font-weight: bold; }
        .flag-box { font-family: Arial, sans-serif; font-size: 10px; fill: #333333; }
        .title-text { font-family: Arial, sans-serif; font-size: 14px; font-weight: bold; fill: #333333; }
    </style>
    <clipPath id="clip-name"><rect x="0" y="0" width="183" height="1136"/></clipPath>
    <clipPath id="clip-flags"><rect x="183" y="0" width="50" height="1136"/></clipPath>
    <clipPath id="clip-card"><rect x="233" y="0" width="55" height="1136"/></clipPath>
    <clipPath id="clip-type"><rect x="288" y="0" width="220" height="1136"/></clipPath>
    <clipPath id="clip-desc"><rect x="508" y="0" width="400" height="1136"/></clipPath>
</defs>
<rect x="0" y="0" width="908" height="32" fill="#F0F0F0" stroke="#CCCCCC"/>
<text x="8" y="21" class="title-text">Structure</text>
<rect x="0" y="32" width="908" height="28" fill="#F0F0F0" stroke="#CCCCCC"/>
<text x="14" y="51" class="header-text">Name</text>
<line x1="191" y1="32" x2="191" y2="60" stroke="#CCCCCC"/>
<text x="197" y="51" class="header-text">Flags</text>
<line x1="241" y1="32" x2="241" y2="60" stroke="#CCCCCC"/>
<text x="247" y="51" class="header-text">Card.</text>
<line x1="296" y1="32" x2="296" y2="60" stroke="#CCCCCC"/>
<text x="302" y="51" class="header-text">Type</text>
<line x1="516" y1="32" x2="516" y2="60" stroke="#CCCCCC"/>
<text x="522" y="51" class="header-text">Description &amp; Constraints</text>
<rect x="0" y="60" width="908" height="58" fill="#FFFFFF"/>
<line x1="0" y1="118" x2="908" y2="118" stroke="#CCCCCC" stroke-width="0.5"/>
<g transform="translate(8.000000,63.000000)">
    <path d="M0,1.960000 L0,9.800000 L12.600000,9.800000 L12.600000,0 L5.040000,0 L7.040000,1.960000 L0,1.960000 Z"
          fill="#FDB813" stroke="#FDB813" stroke-width="1"/></g><g clip-path="url(#clip-name)">
<text x="26" y="76" class="link-text">Appointment</text>
</g>
<line x1="191" y1="60" x2="191" y2="118" stroke="#CCCCCC"/>
<g clip-path="url(#clip-flags)" transform="translate(199, 89)"><rect x="0" y="-8" width="20" height="14" fill="none" stroke="#CCCCCC" rx="2"/><text x="3" y="2" class="flag-box">TU</text></g>
<line x1="241" y1="60" x2="241" y2="118" stroke="#CCCCCC"/>
<g clip-path="url(#clip-card)"><text x="249" y="93" class="cell-text"></text></g>
<line x1="296" y1="60" x2="296" y2="118" stroke="#CCCCCC"/>
<g clip-path="url(#clip-type)">
<text x="304" y="76" class="link-text">DomainResource</text>
</g>
<line x1="516" y1="60" x2="516" y2="118" stroke="#CCCCCC"/>
<text x="524" y="76" class="cell-text">Rezervacija zdravstvenega dogodka med pacientom(-i),</text>
<text x="524" y="92" class="cell-text">zdravnikom(-i), povezano osebo(-ami) in/ali napravo(-ami) za</text>
<text x="524" y="108" class="cell-text">določen datum/čas</text>
<rect x="0" y="118" width="908" height="26" fill="#F8F8F8"/>
<line x1="0" y1="144" x2="908" y2="144" stroke="#CCCCCC" stroke-width="0.5"/>
<line x1="18.000000" y1="118.000000" x2="18.000000" y2="144.000000" stroke="#CCCCCC" stroke-width="1.000000"/><line x1="18.000000" y1="128.000000" x2="26.000000" y2="128.000000" stroke="#CCCCCC" stroke-width="1.000000"/><polygon points="35.000000,121.000000 42.000000,128.000000 35.000000,135.000000 28.000000,128.000000"
        fill="#005EB8" stroke="#005EB8" stroke-width="0.5"/><g clip-path="url(#clip-name)">
<text x="46" y="134" class="link-text">identifier</text>
</g>
<line x1="191" y1="118" x2="191" y2="144" stroke="#CCCCCC"/>
<g clip-path="url(#clip-flags)" transform="translate(199, 131)"><text x="0" y="2" class="flag-box">Σ</text></g>
<line x1="241" y1="118" x2="241" y2="144" stroke="#CCCCCC"/>
<g clip-path="url(#clip-card)"><text x="249" y="135" class="cell-text">0..*</text></g>
<line x1="296" y1="118" x2="296" y2="144" stroke="#CCCCCC"/>
<g clip-path="url(#clip-type)">
<a xlink:href="https://hl7.org/fhir/R4B/datatypes.html#Identifier" target="_blank"><text x="304" y="134" class="link-text">Identifier</text></a>
</g>
<line x1="516" y1="118" x2="516" y2="144" stroke="#CCCCCC"/>
<text x="524" y="134" class="cell-text">Zunanji identifikatorji za ta element - To bo tudi *his identifier*</text>
<rect x="0" y="144" width="908" height="42" fill="#FFFFFF"/>
<line x1="0" y1="186" x2="908" y2="186" stroke="#CCCCCC" stroke-width="0.5"/>
<line x1="18.000000" y1="144.000000" x2="18.000000" y2="186.000000" stroke="#CCCCCC" stroke-width="1.000000"/><line x1="18.000000" y1="154.000000" x2="26.000000" y2="154.000000" stroke="#CCCCCC" stroke-width="1.000000"/><polygon points="35.000000,147.000000 42.000000,154.000000 35.000000,161.000000 28.000000,154.000000"
        fill="#005EB8" stroke="#005EB8" stroke-width="0.5"/><g clip-path="url(#clip-name)">
<text x="46" y="160" class="link-text">status</text>
</g>
<line x1="191" y1="144" x2="191" y2="186" stroke="#CCCCCC"/>
<g clip-path="url(#clip-flags)" transform="translate(199, 165)"><text x="0" y="2" class="flag-box">?!Σ</text><text x="32" y="2" class="flag-box">Σ</text></g>
<line x1="241" y1="144" x2="241" y2="186" stroke="#CCCCCC"/>
<g clip-path="url(#clip-card)"><text x="249" y="169" class="cell-text">1..1</text></g>
<line x1="296" y1="144" x2="296" y2="186" stroke="#CCCCCC"/>
<g clip-path="url(#clip-type)">
<text x="304" y="160" class="link-text">code</text>
</g>
<line x1="516" y1="144" x2="516" y2="186" stroke="#CCCCCC"/>
<text x="524" y="160" class="cell-text">Status termina - Na nivoju termina uporabljamo le booked in</text>
<text x="524" y="176" class="cell-text">cancelled</text>
<rect x="0" y="186" width="908" height="42" fill="#F8F8F8"/>
<line x1="0" y1="228" x2="908" y2="228" stroke="#CCCCCC" stroke-width="0.5"/>
<line x1="18.000000" y1="186.000000" x2="18.000000" y2="228.000000" stroke="#CCCCCC" stroke-width="1.000000"/><line x1="18.000000" y1="196.000000" x2="26.000000" y2="196.000000" stroke="#CCCCCC" stroke-width="1.000000"/><polygon points="35.000000,189.000000 42.000000,196.000000 35.000000,203.000000 28.000000,196.000000"
        fill="#005EB8" stroke="#005EB8" stroke-width="0.5"/><g clip-path="url(#clip-name)">
<text x="46" y="202" class="link-text">cancelationReason</text>
</g>
<line x1="191" y1="186" x2="191" y2="228" stroke="#CCCCCC"/>
<g clip-path="url(#clip-flags)" transform="translate(199, 207)"><text x="0" y="2" class="flag-box">Σ</text></g>
<line x1="241" y1="186" x2="241" y2="228" stroke="#CCCCCC"/>
<g clip-path="url(#clip-card)"><text x="249" y="211" class="cell-text">0..1</text></g>
<line x1="296" y1="186" x2="296" y2="228" stroke="#CCCCCC"/>
<g clip-path="url(#clip-type)">
<text x="304" y="202" class="link-text">CodeableConcept</text>
</g>
<line x1="516" y1="186" x2="516" y2="228" stroke="#CCCCCC"/>
<text x="524" y="202" class="cell-text">Kodiran razlog za preklic termina - Referencira</text>
<text x="524" y="218" class="cell-text">AppointmentCancellationReason</text>
<rect x="0" y="228" width="908" height="42" fill="#FFFFFF"/>
<line x1="0" y1="270" x2="908" y2="270" stroke="#CCCCCC" stroke-width="0.5"/>
<line x1="18.000000" y1="228.000000" x2="18.000000" y2="270.000000" stroke="#CCCCCC" stroke-width="1.000000"/><line x1="18.000000" y1="238.000000" x2="26.000000" y2="238.000000" stroke="#CCCCCC" stroke-width="1.000000"/><polygon points="35.000000,231.000000 42.000000,238.000000 35.000000,245.000000 28.000000,238.000000"
        fill="#005EB8" stroke="#005EB8" stroke-width="0.5"/><g clip-path="url(#clip-name)">
<text x="46" y="244" class="link-text">serviceCategory</text>
</g>
<line x1="191" y1="228" x2="191" y2="270" stroke="#CCCCCC"/>
<g clip-path="url(#clip-flags)" transform="translate(199, 249)"><text x="0" y="2" class="flag-box">Σ</text></g>
<line x1="241" y1="228" x2="241" y2="270" stroke="#CCCCCC"/>
<g clip-path="url(#clip-card)"><text x="249" y="253" class="cell-text">0..*</text></g>
<line x1="296" y1="228" x2="296" y2="270" stroke="#CCCCCC"/>
<g clip-path="url(#clip-type)">
<a xlink:href="https://hl7.org/fhir/R4B/valueset-service-category.html" target="_blank"><text x="304" y="244" class="link-text">CodeableConcept</text></a>
</g>
<line x1="516" y1="228" x2="516" y2="270" stroke="#CCCCCC"/>
<text x="524" y="244" class="cell-text">Široka kategorizacija storitve, ki bo izvedena - Vrsta obravnave -</text>
<text x="524" y="260" class="cell-text">uporabi se tudi v Encounter-ju</text>
<rect x="0" y="270" width="908" height="42" fill="#F8F8F8"/>
<line x1="0" y1="312" x2="908" y2="312" stroke="#CCCCCC" stroke-width="0.5"/>
<line x1="18.000000" y1="270.000000" x2="18.000000" y2="312.000000" stroke="#CCCCCC" stroke-width="1.000000"/><line x1="18.000000" y1="280.000000" x2="26.000000" y2="280.000000" stroke="#CCCCCC" stroke-width="1.000000"/><polygon points="35.000000,273.000000 42.000000,280.000000 35.000000,287.000000 28.000000,280.000000"
        fill="#005EB8" stroke="#005EB8" stroke-width="0.5"/><g clip-path="url(#clip-name)">
<text x="46" y="286" class="link-text">serviceType</text>
</g>
<line x1="191" y1="270" x2="191" y2="312" stroke="#CCCCCC"/>
<g clip-path="url(#clip-flags)" transform="translate(199, 291)"><text x="0" y="2" class="flag-box">Σ</text></g>
<line x1="241" y1="270" x2="241" y2="312" stroke="#CCCCCC"/>
<g clip-path="url(#clip-card)"><text x="249" y="295" class="cell-text">0..*</text></g>
<line x1="296" y1="270" x2="296" y2="312" stroke="#CCCCCC"/>
<g clip-path="url(#clip-type)">
<text x="304" y="286" class="link-text">CodeableConcept</text>
</g>
<line x1="516" y1="270" x2="516" y2="312" stroke="#CCCCCC"/>
<text x="524" y="286" class="cell-text">Specifična storitev, ki bo izvedena med tem terminom - VZS -</text>
<text x="524" y="302" class="cell-text">https://terminology.ih.ezdrav.si/terminology/rest/v1/fhir</text>
<rect x="0" y="312" width="908" height="26" fill="#FFFFFF"/>
<line x1="0" y1="338" x2="908" y2="338" stroke="#CCCCCC" stroke-width="0.5"/>
<line x1="18.000000" y1="312.000000" x2="18.000000" y2="338.000000" stroke="#CCCCCC" stroke-width="1.000000"/><line x1="18.000000" y1="322.000000" x2="26.000000" y2="322.000000" stroke="#CCCCCC" stroke-width="1.000000"/><polygon points="35.000000,315.000000 42.000000,322.000000 35.000000,329.000000 28.000000,322.000000"
        fill="#005EB8" stroke="#005EB8" stroke-width="0.5"/><g clip-path="url(#clip-name)">
<text x="46" y="328" class="link-text">specialty</text>
</g>
<line x1="191" y1="312" x2="191" y2="338" stroke="#CCCCCC"/>
<g clip-path="url(#clip-flags)" transform="translate(199, 325)"><text x="0" y="2" class="flag-box">Σ</text></g>
<line x1="241" y1="312" x2="241" y2="338" stroke="#CCCCCC"/>
<g clip-path="url(#clip-card)"><text x="249" y="329" class="cell-text">0..*</text></g>
<line x1="296" y1="312" x2="296" y2="338" stroke="#CCCCCC"/>
<g clip-path="url(#clip-type)">
<text x="304" y="328" class="link-text">CodeableConcept</text>
</g>
<line x1="516" y1="312" x2="516" y2="338" stroke="#CCCCCC"/>
<text x="524" y="328" class="cell-text">Specializacija izvajalca - VZD</text>
<rect x="0" y="338" width="908" height="42" fill="#F8F8F8"/>
<line x1="0" y1="380" x2="908" y2="380" stroke="#CCCCCC" stroke-width="0.5"/>
<line x1="18.000000" y1="338.000000" x2="18.000000" y2="380.000000" stroke="#CCCCCC" stroke-width="1.000000"/><line x1="18.000000" y1="348.000000" x2="26.000000" y2="348.000000" stroke="#CCCCCC" stroke-width="1.000000"/><polygon points="35.000000,341.000000 42.000000,348.000000 35.000000,355.000000 28.000000,348.000000"
        fill="#005EB8" stroke="#005EB8" stroke-width="0.5"/><g clip-path="url(#clip-name)">
<text x="46" y="354" class="link-text">appointmentType</text>
</g>
<line x1="191" y1="338" x2="191" y2="380" stroke="#CCCCCC"/>
<g clip-path="url(#clip-flags)" transform="translate(199, 359)"><text x="0" y="2" class="flag-box">Σ</text></g>
<line x1="241" y1="338" x2="241" y2="380" stroke="#CCCCCC"/>
<g clip-path="url(#clip-card)"><text x="249" y="363" class="cell-text">0..1</text></g>
<line x1="296" y1="338" x2="296" y2="380" stroke="#CCCCCC"/>
<g clip-path="url(#clip-type)">
<a xlink:href="https://terminology.hl7.org/3.1.0/CodeSystem-v2-0276.html" target="_blank"><text x="304" y="354" class="link-text">CodeableConcept</text></a>
</g>
<line x1="516" y1="338" x2="516" y2="380" stroke="#CCCCCC"/>
<text x="524" y="354" class="todo">TODO: Vrsta termina ali pacienta - TODO: mogoče</text>
<text x="524" y="370" class="todo">zlorabimo za kaj drugega</text>
<rect x="0" y="380" width="908" height="26" fill="#FFFFFF"/>
<line x1="0" y1="406" x2="908" y2="406" stroke="#CCCCCC" stroke-width="0.5"/>
<line x1="18.000000" y1="380.000000" x2="18.000000" y2="406.000000" stroke="#CCCCCC" stroke-width="1.000000"/><line x1="18.000000" y1="390.000000" x2="26.000000" y2="390.000000" stroke="#CCCCCC" stroke-width="1.000000"/><polygon points="35.000000,383.000000 42.000000,390.000000 35.000000,397.000000 28.000000,390.000000"
        fill="#005EB8" stroke="#005EB8" stroke-width="0.5"/><g clip-path="url(#clip-name)">
<text x="46" y="396" class="not-used">reasonCode</text>
</g>
<line x1="191" y1="380" x2="191" y2="406" stroke="#CCCCCC"/>
<g clip-path="url(#clip-flags)" transform="translate(199, 393)"><text x="0" y="2" class="flag-box">Σ</text></g>
<line x1="241" y1="380" x2="241" y2="406" stroke="#CCCCCC"/>
<g clip-path="url(#clip-card)"><text x="249" y="397" class="cell-text">0..*</text></g>
<line x1="296" y1="380" x2="296" y2="406" stroke="#CCCCCC"/>
<g clip-path="url(#clip-type)">
<text x="304" y="396" class="link-text">CodeableConcept</text>
</g>
<line x1="516" y1="380" x2="516" y2="406" stroke="#CCCCCC"/>
<text x="524" y="396" class="not-used">Kodiran razlog za načrtovanje tega termina</text>
<rect x="0" y="406" width="908" height="58" fill="#F8F8F8"/>
<line x1="0" y1="464" x2="908" y2="464" stroke="#CCCCCC" stroke-width="0.5"/>
<line x1="18.000000" y1="406.000000" x2="18.000000" y2="464.000000" stroke="#CCCCCC" stroke-width="1.000000"/><line x1="18.000000" y1="416.000000" x2="26.000000" y2="416.000000" stroke="#CCCCCC" stroke-width="1.000000"/><g>
    <line x1="29.400000" y1="416.000000" x2="36.120000" y2="416.000000" stroke="#005EB8" stroke-width="2"/>
    <polygon points="35.000000,412.640000 40.600000,416.000000 35.000000,419.360000" fill="#005EB8"/>
</g><g clip-path="url(#clip-name)">
<text x="46" y="422" class="not-used">reasonReference</text>
</g>
<line x1="191" y1="406" x2="191" y2="464" stroke="#CCCCCC"/>
<g clip-path="url(#clip-flags)" transform="translate(199, 435)"></g>
<line x1="241" y1="406" x2="241" y2="464" stroke="#CCCCCC"/>
<g clip-path="url(#clip-card)"><text x="249" y="439" class="cell-text">0..*</text></g>
<line x1="296" y1="406" x2="296" y2="464" stroke="#CCCCCC"/>
<g clip-path="url(#clip-type)">
<text x="304" y="422" class="link-text">Reference(Condition | Procedure |</text>
<text x="304" y="438" class="link-text">Observation |</text>
<text x="304" y="454" class="link-text">ImmunizationRecommendation)</text>
</g>
<line x1="516" y1="406" x2="516" y2="464" stroke="#CCCCCC"/>
<text x="524" y="422" class="not-used">Razlog za izvedbo termina (vir)</text>
<rect x="0" y="464" width="908" height="26" fill="#FFFFFF"/>
<line x1="0" y1="490" x2="908" y2="490" stroke="#CCCCCC" stroke-width="0.5"/>
<line x1="18.000000" y1="464.000000" x2="18.000000" y2="490.000000" stroke="#CCCCCC" stroke-width="1.000000"/><line x1="18.000000" y1="474.000000" x2="26.000000" y2="474.000000" stroke="#CCCCCC" stroke-width="1.000000"/><polygon points="35.000000,467.000000 42.000000,474.000000 35.000000,481.000000 28.000000,474.000000"
        fill="#005EB8" stroke="#005EB8" stroke-width="0.5"/><g clip-path="url(#clip-name)">
<text x="46" y="480" class="link-text">priority</text>
</g>
<line x1="191" y1="464" x2="191" y2="490" stroke="#CCCCCC"/>
<g clip-path="url(#clip-flags)" transform="translate(199, 477)"></g>
<line x1="241" y1="464" x2="241" y2="490" stroke="#CCCCCC"/>
<g clip-path="url(#clip-card)"><text x="249" y="481" class="cell-text">0..1</text></g>
<line x1="296" y1="464" x2="296" y2="490" stroke="#CCCCCC"/>
<g clip-path="url(#clip-type)">
<text x="304" y="480" class="link-text">unsignedInt</text>
</g>
<line x1="516" y1="464" x2="516" y2="490" stroke="#CCCCCC"/>
<text x="524" y="480" class="cell-text">Prioriteta termina - Uporabljamo za vrstni red v čakalnici</text>
<rect x="0" y="490" width="908" height="42" fill="#F8F8F8"/>
<line x1="0" y1="532" x2="908" y2="532" stroke="#CCCCCC" stroke-width="0.5"/>
<line x1="18.000000" y1="490.000000" x2="18.000000" y2="532.000000" stroke="#CCCCCC" stroke-width="1.000000"/><line x1="18.000000" y1="500.000000" x2="26.000000" y2="500.000000" stroke="#CCCCCC" stroke-width="1.000000"/><polygon points="35.000000,493.000000 42.000000,500.000000 35.000000,507.000000 28.000000,500.000000"
        fill="#005EB8" stroke="#005EB8" stroke-width="0.5"/><g clip-path="url(#clip-name)">
<text x="46" y="506" class="link-text">description</text>
</g>
<line x1="191" y1="490" x2="191" y2="532" stroke="#CCCCCC"/>
<g clip-path="url(#clip-flags)" transform="translate(199, 511)"></g>
<line x1="241" y1="490" x2="241" y2="532" stroke="#CCCCCC"/>
<g clip-path="url(#clip-card)"><text x="249" y="515" class="cell-text">0..1</text></g>
<line x1="296" y1="490" x2="296" y2="532" stroke="#CCCCCC"/>
<g clip-path="url(#clip-type)">
<text x="304" y="506" class="link-text">string</text>
</g>
<line x1="516" y1="490" x2="516" y2="532" stroke="#CCCCCC"/>
<text x="524" y="506" class="cell-text">Prikazano v vrstici zadeve v zahtevi za sestanek - Uporabljamo za</text>
<text x="524" y="522" class="cell-text">zapiske</text>
<rect x="0" y="532" width="908" height="26" fill="#FFFFFF"/>
<line x1="0" y1="558" x2="908" y2="558" stroke="#CCCCCC" stroke-width="0.5"/>
<line x1="18.000000" y1="532.000000" x2="18.000000" y2="558.000000" stroke="#CCCCCC" stroke-width="1.000000"/><line x1="18.000000" y1="542.000000" x2="26.000000" y2="542.000000" stroke="#CCCCCC" stroke-width="1.000000"/><g>
    <line x1="29.400000" y1="542.000000" x2="36.120000" y2="542.000000" stroke="#005EB8" stroke-width="2"/>
    <polygon points="35.000000,538.640000 40.600000,542.000000 35.000000,545.360000" fill="#005EB8"/>
</g><g clip-path="url(#clip-name)">
<text x="46" y="548" class="not-used">supportingInformation</text>
</g>
<line x1="191" y1="532" x2="191" y2="558" stroke="#CCCCCC"/>
<g clip-path="url(#clip-flags)" transform="translate(199, 545)"></g>
<line x1="241" y1="532" x2="241" y2="558" stroke="#CCCCCC"/>
<g clip-path="url(#clip-card)"><text x="249" y="549" class="cell-text">0..*</text></g>
<line x1="296" y1="532" x2="296" y2="558" stroke="#CCCCCC"/>
<g clip-path="url(#clip-type)">
<text x="304" y="548" class="link-text">Reference(Any)</text>
</g>
<line x1="516" y1="532" x2="516" y2="558" stroke="#CCCCCC"/>
<text x="524" y="548" class="not-used">Dodatne informacije za podporo terminu</text>
<rect x="0" y="558" width="908" height="26" fill="#F8F8F8"/>
<line x1="0" y1="584" x2="908" y2="584" stroke="#CCCCCC" stroke-width="0.5"/>
<line x1="18.000000" y1="558.000000" x2="18.000000" y2="584.000000" stroke="#CCCCCC" stroke-width="1.000000"/><line x1="18.000000" y1="568.000000" x2="26.000000" y2="568.000000" stroke="#CCCCCC" stroke-width="1.000000"/><polygon points="35.000000,561.000000 42.000000,568.000000 35.000000,575.000000 28.000000,568.000000"
        fill="#005EB8" stroke="#005EB8" stroke-width="0.5"/><g clip-path="url(#clip-name)">
<text x="46" y="574" class="link-text">start</text>
</g>
<line x1="191" y1="558" x2="191" y2="584" stroke="#CCCCCC"/>
<g clip-path="url(#clip-flags)" transform="translate(199, 571)"><text x="0" y="2" class="flag-box">Σ</text></g>
<line x1="241" y1="558" x2="241" y2="584" stroke="#CCCCCC"/>
<g clip-path="url(#clip-card)"><text x="249" y="575" class="cell-text">0..1</text></g>
<line x1="296" y1="558" x2="296" y2="584" stroke="#CCCCCC"/>
<g clip-path="url(#clip-type)">
<text x="304" y="574" class="link-text">instant</text>
</g>
<line x1="516" y1="558" x2="516" y2="584" stroke="#CCCCCC"/>
<text x="524" y="574" class="cell-text">Kdaj naj se termin začne</text>
<rect x="0" y="584" width="908" height="26" fill="#FFFFFF"/>
<line x1="0" y1="610" x2="908" y2="610" stroke="#CCCCCC" stroke-width="0.5"/>
<line x1="18.000000" y1="584.000000" x2="18.000000" y2="610.000000" stroke="#CCCCCC" stroke-width="1.000000"/><line x1="18.000000" y1="594.000000" x2="26.000000" y2="594.000000" stroke="#CCCCCC" stroke-width="1.000000"/><polygon points="35.000000,587.000000 42.000000,594.000000 35.000000,601.000000 28.000000,594.000000"
        fill="#005EB8" stroke="#005EB8" stroke-width="0.5"/><g clip-path="url(#clip-name)">
<text x="46" y="600" class="link-text">end</text>
</g>
<line x1="191" y1="584" x2="191" y2="610" stroke="#CCCCCC"/>
<g clip-path="url(#clip-flags)" transform="translate(199, 597)"><text x="0" y="2" class="flag-box">Σ</text></g>
<line x1="241" y1="584" x2="241" y2="610" stroke="#CCCCCC"/>
<g clip-path="url(#clip-card)"><text x="249" y="601" class="cell-text">0..1</text></g>
<line x1="296" y1="584" x2="296" y2="610" stroke="#CCCCCC"/>
<g clip-path="url(#clip-type)">
<text x="304" y="600" class="link-text">instant</text>
</g>
<line x1="516" y1="584" x2="516" y2="610" stroke="#CCCCCC"/>
<text x="524" y="600" class="cell-text">Kdaj naj se termin zaključi</text>
<rect x="0" y="610" width="908" height="42" fill="#F8F8F8"/>
<line x1="0" y1="652" x2="908" y2="652" stroke="#CCCCCC" stroke-width="0.5"/>
<line x1="18.000000" y1="610.000000" x2="18.000000" y2="652.000000" stroke="#CCCCCC" stroke-width="1.000000"/><line x1="18.000000" y1="620.000000" x2="26.000000" y2="620.000000" stroke="#CCCCCC" stroke-width="1.000000"/><polygon points="35.000000,613.000000 42.000000,620.000000 35.000000,627.000000 28.000000,620.000000"
        fill="#005EB8" stroke="#005EB8" stroke-width="0.5"/><g clip-path="url(#clip-name)">
<text x="46" y="626" class="link-text">minutesDuration</text>
</g>
<line x1="191" y1="610" x2="191" y2="652" stroke="#CCCCCC"/>
<g clip-path="url(#clip-flags)" transform="translate(199, 631)"></g>
<line x1="241" y1="610" x2="241" y2="652" stroke="#CCCCCC"/>
<g clip-path="url(#clip-card)"><text x="249" y="635" class="cell-text">0..1</text></g>
<line x1="296" y1="610" x2="296" y2="652" stroke="#CCCCCC"/>
<g clip-path="url(#clip-type)">
<text x="304" y="626" class="link-text">positiveInt</text>
</g>
<line x1="516" y1="610" x2="516" y2="652" stroke="#CCCCCC"/>
<text x="524" y="626" class="todo">TODO: Lahko je manj kot začetek/konec (npr. ocena) - Ne</text>
<text x="524" y="642" class="todo">uporabljamo ali preračunamo?</text>
<rect x="0" y="652" width="908" height="26" fill="#FFFFFF"/>
<line x1="0" y1="678" x2="908" y2="678" stroke="#CCCCCC" stroke-width="0.5"/>
<line x1="18.000000" y1="652.000000" x2="18.000000" y2="678.000000" stroke="#CCCCCC" stroke-width="1.000000"/><line x1="18.000000" y1="662.000000" x2="26.000000" y2="662.000000" stroke="#CCCCCC" stroke-width="1.000000"/><g>
    <line x1="29.400000" y1="662.000000" x2="36.120000" y2="662.000000" stroke="#005EB8" stroke-width="2"/>
    <polygon points="35.000000,658.640000 40.600000,662.000000 35.000000,665.360000" fill="#005EB8"/>
</g><g clip-path="url(#clip-name)">
<text x="46" y="668" class="not-used">slot</text>
</g>
<line x1="191" y1="652" x2="191" y2="678" stroke="#CCCCCC"/>
<g clip-path="url(#clip-flags)" transform="translate(199, 665)"></g>
<line x1="241" y1="652" x2="241" y2="678" stroke="#CCCCCC"/>
<g clip-path="url(#clip-card)"><text x="249" y="669" class="cell-text">0..*</text></g>
<line x1="296" y1="652" x2="296" y2="678" stroke="#CCCCCC"/>
<g clip-path="url(#clip-type)">
<text x="304" y="668" class="link-text">Reference(Slot)</text>
</g>
<line x1="516" y1="652" x2="516" y2="678" stroke="#CCCCCC"/>
<text x="524" y="668" class="not-used">Časovna okna, ki jih ta termin zaseda</text>
<rect x="0" y="678" width="908" height="26" fill="#F8F8F8"/>
<line x1="0" y1="704" x2="908" y2="704" stroke="#CCCCCC" stroke-width="0.5"/>
<line x1="18.000000" y1="678.000000" x2="18.000000" y2="704.000000" stroke="#CCCCCC" stroke-width="1.000000"/><line x1="18.000000" y1="688.000000" x2="26.000000" y2="688.000000" stroke="#CCCCCC" stroke-width="1.000000"/><polygon points="35.000000,681.000000 42.000000,688.000000 35.000000,695.000000 28.000000,688.000000"
        fill="#005EB8" stroke="#005EB8" stroke-width="0.5"/><g clip-path="url(#clip-name)">
<text x="46" y="694" class="link-text">created</text>
</g>
<line x1="191" y1="678" x2="191" y2="704" stroke="#CCCCCC"/>
<g clip-path="url(#clip-flags)" transform="translate(199, 691)"></g>
<line x1="241" y1="678" x2="241" y2="704" stroke="#CCCCCC"/>
<g clip-path="url(#clip-card)"><text x="249" y="695" class="cell-text">0..1</text></g>
<line x1="296" y1="678" x2="296" y2="704" stroke="#CCCCCC"/>
<g clip-path="url(#clip-type)">
<text x="304" y="694" class="link-text">dateTime</text>
</g>
<line x1="516" y1="678" x2="516" y2="704" stroke="#CCCCCC"/>
<text x="524" y="694" class="cell-text">Datum, ko je bil ta termin prvotno ustvarjen</text>
<rect x="0" y="704" width="908" height="26" fill="#FFFFFF"/>
<line x1="0" y1="730" x2="908" y2="730" stroke="#CCCCCC" stroke-width="0.5"/>
<line x1="18.000000" y1="704.000000" x2="18.000000" y2="730.000000" stroke="#CCCCCC" stroke-width="1.000000"/><line x1="18.000000" y1="714.000000" x2="26.000000" y2="714.000000" stroke="#CCCCCC" stroke-width="1.000000"/><polygon points="35.000000,707.000000 42.000000,714.000000 35.000000,721.000000 28.000000,714.000000"
        fill="#005EB8" stroke="#005EB8" stroke-width="0.5"/><g clip-path="url(#clip-name)">
<text x="46" y="720" class="not-used">comment</text>
</g>
<line x1="191" y1="704" x2="191" y2="730" stroke="#CCCCCC"/>
<g clip-path="url(#clip-flags)" transform="translate(199, 717)"></g>
<line x1="241" y1="704" x2="241" y2="730" stroke="#CCCCCC"/>
<g clip-path="url(#clip-card)"><text x="249" y="721" class="cell-text">0..1</text></g>
<line x1="296" y1="704" x2="296" y2="730" stroke="#CCCCCC"/>
<g clip-path="url(#clip-type)">
<text x="304" y="720" class="link-text">string</text>
</g>
<line x1="516" y1="704" x2="516" y2="730" stroke="#CCCCCC"/>
<text x="524" y="720" class="not-used">Dodatni komentarji</text>
<rect x="0" y="730" width="908" height="42" fill="#F8F8F8"/>
<line x1="0" y1="772" x2="908" y2="772" stroke="#CCCCCC" stroke-width="0.5"/>
<line x1="18.000000" y1="730.000000" x2="18.000000" y2="772.000000" stroke="#CCCCCC" stroke-width="1.000000"/><line x1="18.000000" y1="740.000000" x2="26.000000" y2="740.000000" stroke="#CCCCCC" stroke-width="1.000000"/><polygon points="35.000000,733.000000 42.000000,740.000000 35.000000,747.000000 28.000000,740.000000"
        fill="#005EB8" stroke="#005EB8" stroke-width="0.5"/><g clip-path="url(#clip-name)">
<text x="46" y="746" class="link-text">patientInstruction</text>
</g>
<line x1="191" y1="730" x2="191" y2="772" stroke="#CCCCCC"/>
<g clip-path="url(#clip-flags)" transform="translate(199, 751)"></g>
<line x1="241" y1="730" x2="241" y2="772" stroke="#CCCCCC"/>
<g clip-path="url(#clip-card)"><text x="249" y="755" class="cell-text">0..1</text></g>
<line x1="296" y1="730" x2="296" y2="772" stroke="#CCCCCC"/>
<g clip-path="url(#clip-type)">
<text x="304" y="746" class="link-text">string</text>
</g>
<line x1="516" y1="730" x2="516" y2="772" stroke="#CCCCCC"/>
<text x="524" y="746" class="cell-text">Podrobne informacije in navodila za pacienta - Uporabljamo za</text>
<text x="524" y="762" class="cell-text">besedilo, ki bo prikazano tudi pacientu</text>
<rect x="0" y="772" width="908" height="58" fill="#FFFFFF"/>
<line x1="0" y1="830" x2="908" y2="830" stroke="#CCCCCC" stroke-width="0.5"/>
<line x1="18.000000" y1="772.000000" x2="18.000000" y2="830.000000" stroke="#CCCCCC" stroke-width="1.000000"/><line x1="18.000000" y1="782.000000" x2="26.000000" y2="782.000000" stroke="#CCCCCC" stroke-width="1.000000"/><g>
    <line x1="29.400000" y1="782.000000" x2="36.120000" y2="782.000000" stroke="#005EB8" stroke-width="2"/>
    <polygon points="35.000000,778.640000 40.600000,782.000000 35.000000,785.360000" fill="#005EB8"/>
</g><g clip-path="url(#clip-name)">
<text x="46" y="788" class="link-text">basedOn</text>
</g>
<line x1="191" y1="772" x2="191" y2="830" stroke="#CCCCCC"/>
<g clip-path="url(#clip-flags)" transform="translate(199, 801)"></g>
<line x1="241" y1="772" x2="241" y2="830" stroke="#CCCCCC"/>
<g clip-path="url(#clip-card)"><text x="249" y="805" class="cell-text">0..*</text></g>
<line x1="296" y1="772" x2="296" y2="830" stroke="#CCCCCC"/>
<g clip-path="url(#clip-type)">
<text x="304" y="788" class="link-text">Reference(ServiceRequest)</text>
</g>
<line x1="516" y1="772" x2="516" y2="830" stroke="#CCCCCC"/>
<text x="524" y="788" class="todo">TODO: Zahteva za storitev, ki ji je ta termin dodeljen -</text>
<text x="524" y="804" class="todo">Delamo service request? Za vsako prošnjo za obisk bi lahko</text>
<text x="524" y="820" class="todo">naredili service request.</text>
<rect x="0" y="830" width="908" height="26" fill="#F8F8F8"/>
<line x1="0" y1="856" x2="908" y2="856" stroke="#CCCCCC" stroke-width="0.5"/>
<line x1="18.000000" y1="830.000000" x2="18.000000" y2="856.000000" stroke="#CCCCCC" stroke-width="1.000000"/><line x1="18.000000" y1="840.000000" x2="26.000000" y2="840.000000" stroke="#CCCCCC" stroke-width="1.000000"/><g transform="translate(28.000000,833.000000)">
    <path d="M0,1.960000 L0,9.800000 L12.600000,9.800000 L12.600000,0 L5.040000,0 L7.040000,1.960000 L0,1.960000 Z"
          fill="#FFFFFF" stroke="#FDB813" stroke-width="1"/><circle cx="6.300000" cy="5.880000" r="1.680000" fill="#FDB813"/></g><g clip-path="url(#clip-name)">
<text x="46" y="846" class="link-text">participant</text>
</g>
<line x1="191" y1="830" x2="191" y2="856" stroke="#CCCCCC"/>
<g clip-path="url(#clip-flags)" transform="translate(199, 843)"><text x="0" y="2" class="flag-box">I</text></g>
<line x1="241" y1="830" x2="241" y2="856" stroke="#CCCCCC"/>
<g clip-path="url(#clip-card)"><text x="249" y="847" class="cell-text">1..*</text></g>
<line x1="296" y1="830" x2="296" y2="856" stroke="#CCCCCC"/>
<g clip-path="url(#clip-type)">
<text x="304" y="846" class="link-text">BackboneElement</text>
</g>
<line x1="516" y1="830" x2="516" y2="856" stroke="#CCCCCC"/>
<text x="524" y="846" class="cell-text">Udeleženci, vključeni v termin - Tim in vsi pacienti, ter lokacije</text>
<rect x="0" y="856" width="908" height="42" fill="#FFFFFF"/>
<line x1="0" y1="898" x2="908" y2="898" stroke="#CCCCCC" stroke-width="0.5"/>
<line x1="18.000000" y1="856.000000" x2="18.000000" y2="898.000000" stroke="#CCCCCC" stroke-width="1.000000"/><line x1="38.000000" y1="856.000000" x2="38.000000" y2="898.000000" stroke="#CCCCCC" stroke-width="1.000000"/><line x1="38.000000" y1="866.000000" x2="46.000000" y2="866.000000" stroke="#CCCCCC" stroke-width="1.000000"/><polygon points="55.000000,859.000000 62.000000,866.000000 55.000000,873.000000 48.000000,866.000000"
        fill="#005EB8" stroke="#005EB8" stroke-width="0.5"/><g clip-path="url(#clip-name)">
<text x="66" y="872" class="link-text">type</text>
</g>
<line x1="191" y1="856" x2="191" y2="898" stroke="#CCCCCC"/>
<g clip-path="url(#clip-flags)" transform="translate(199, 877)"><text x="0" y="2" class="flag-box">Σ</text></g>
<line x1="241" y1="856" x2="241" y2="898" stroke="#CCCCCC"/>
<g clip-path="url(#clip-card)"><text x="249" y="881" class="cell-text">0..*</text></g>
<line x1="296" y1="856" x2="296" y2="898" stroke="#CCCCCC"/>
<g clip-path="url(#clip-type)">
<text x="304" y="872" class="link-text">CodeableConcept</text>
</g>
<line x1="516" y1="856" x2="516" y2="898" stroke="#CCCCCC"/>
<text x="524" y="872" class="cell-text">Vloga udeleženca v terminu - ADM (admitter) za tim, ATND</text>
<text x="524" y="888" class="cell-text">(attender) za paciente</text>
<rect x="0" y="898" width="908" height="74" fill="#F8F8F8"/>
<line x1="0" y1="972" x2="908" y2="972" stroke="#CCCCCC" stroke-width="0.5"/>
<line x1="18.000000" y1="898.000000" x2="18.000000" y2="972.000000" stroke="#CCCCCC" stroke-width="1.000000"/><line x1="38.000000" y1="898.000000" x2="38.000000" y2="972.000000" stroke="#CCCCCC" stroke-width="1.000000"/><line x1="38.000000" y1="908.000000" x2="46.000000" y2="908.000000" stroke="#CCCCCC" stroke-width="1.000000"/><g>
    <line x1="49.400000" y1="908.000000" x2="56.120000" y2="908.000000" stroke="#005EB8" stroke-width="2"/>
    <polygon points="55.000000,904.640000 60.600000,908.000000 55.000000,911.360000" fill="#005EB8"/>
</g><g clip-path="url(#clip-name)">
<text x="66" y="914" class="link-text">actor</text>
</g>
<line x1="191" y1="898" x2="191" y2="972" stroke="#CCCCCC"/>
<g clip-path="url(#clip-flags)" transform="translate(199, 935)"><text x="0" y="2" class="flag-box">Σ</text></g>
<line x1="241" y1="898" x2="241" y2="972" stroke="#CCCCCC"/>
<g clip-path="url(#clip-card)"><text x="249" y="939" class="cell-text">0..1</text></g>
<line x1="296" y1="898" x2="296" y2="972" stroke="#CCCCCC"/>
<g clip-path="url(#clip-type)">
<text x="304" y="914" class="link-text">Reference(Patient | Practitioner |</text>
<text x="304" y="930" class="link-text">PractitionerRole | RelatedPerson |</text>
<text x="304" y="946" class="link-text">Device | HealthcareService |</text>
<text x="304" y="962" class="link-text">Location)</text>
</g>
<line x1="516" y1="898" x2="516" y2="972" stroke="#CCCCCC"/>
<text x="524" y="914" class="cell-text">Oseba, lokacija/zdravstvena storitev ali naprava - Potrebujemo</text>
<text x="524" y="930" class="cell-text">reference na CareTeam</text>
<rect x="0" y="972" width="908" height="26" fill="#FFFFFF"/>
<line x1="0" y1="998" x2="908" y2="998" stroke="#CCCCCC" stroke-width="0.5"/>
<line x1="18.000000" y1="972.000000" x2="18.000000" y2="998.000000" stroke="#CCCCCC" stroke-width="1.000000"/><line x1="38.000000" y1="972.000000" x2="38.000000" y2="998.000000" stroke="#CCCCCC" stroke-width="1.000000"/><line x1="38.000000" y1="982.000000" x2="46.000000" y2="982.000000" stroke="#CCCCCC" stroke-width="1.000000"/><polygon points="55.000000,975.000000 62.000000,982.000000 55.000000,989.000000 48.000000,982.000000"
        fill="#005EB8" stroke="#005EB8" stroke-width="0.5"/><g clip-path="url(#clip-name)">
<text x="66" y="988" class="link-text">required</text>
</g>
<line x1="191" y1="972" x2="191" y2="998" stroke="#CCCCCC"/>
<g clip-path="url(#clip-flags)" transform="translate(199, 985)"><text x="0" y="2" class="flag-box">Σ</text></g>
<line x1="241" y1="972" x2="241" y2="998" stroke="#CCCCCC"/>
<g clip-path="url(#clip-card)"><text x="249" y="989" class="cell-text">0..1</text></g>
<line x1="296" y1="972" x2="296" y2="998" stroke="#CCCCCC"/>
<g clip-path="url(#clip-type)">
<text x="304" y="988" class="link-text">code</text>
</g>
<line x1="516" y1="972" x2="516" y2="998" stroke="#CCCCCC"/>
<text x="524" y="988" class="cell-text">required | optional | information-only - Vedno required</text>
<rect x="0" y="998" width="908" height="42" fill="#F8F8F8"/>
<line x1="0" y1="1040" x2="908" y2="1040" stroke="#CCCCCC" stroke-width="0.5"/>
<line x1="18.000000" y1="998.000000" x2="18.000000" y2="1040.000000" stroke="#CCCCCC" stroke-width="1.000000"/><line x1="38.000000" y1="998.000000" x2="38.000000" y2="1040.000000" stroke="#CCCCCC" stroke-width="1.000000"/><line x1="38.000000" y1="1008.000000" x2="46.000000" y2="1008.000000" stroke="#CCCCCC" stroke-width="1.000000"/><polygon points="55.000000,1001.000000 62.000000,1008.000000 55.000000,1015.000000 48.000000,1008.000000"
        fill="#005EB8" stroke="#005EB8" stroke-width="0.5"/><g clip-path="url(#clip-name)">
<text x="66" y="1014" class="link-text">status</text>
</g>
<line x1="191" y1="998" x2="191" y2="1040" stroke="#CCCCCC"/>
<g clip-path="url(#clip-flags)" transform="translate(199, 1019)"><text x="0" y="2" class="flag-box">Σ</text></g>
<line x1="241" y1="998" x2="241" y2="1040" stroke="#CCCCCC"/>
<g clip-path="url(#clip-card)"><text x="249" y="1023" class="cell-text">1..1</text></g>
<line x1="296" y1="998" x2="296" y2="1040" stroke="#CCCCCC"/>
<g clip-path="url(#clip-type)">
<text x="304" y="1014" class="link-text">code</text>
</g>
<line x1="516" y1="998" x2="516" y2="1040" stroke="#CCCCCC"/>
<text x="524" y="1014" class="cell-text">accepted | declined | tentative | needs-action - Uporabljamo za</text>
<text x="524" y="1030" class="cell-text">patient confirmation</text>
<rect x="0" y="1040" width="908" height="26" fill="#FFFFFF"/>
<line x1="0" y1="1066" x2="908" y2="1066" stroke="#CCCCCC" stroke-width="0.5"/>
<line x1="18.000000" y1="1040.000000" x2="18.000000" y2="1066.000000" stroke="#CCCCCC" stroke-width="1.000000"/><line x1="38.000000" y1="1040.000000" x2="38.000000" y2="1050.000000" stroke="#CCCCCC" stroke-width="1.000000"/><line x1="38.000000" y1="1050.000000" x2="46.000000" y2="1050.000000" stroke="#CCCCCC" stroke-width="1.000000"/><polygon points="55.000000,1043.000000 62.000000,1050.000000 55.000000,1057.000000 48.000000,1050.000000"
        fill="#005EB8" stroke="#005EB8" stroke-width="0.5"/><g clip-path="url(#clip-name)">
<text x="66" y="1056" class="not-used">period</text>
</g>
<line x1="191" y1="1040" x2="191" y2="1066" stroke="#CCCCCC"/>
<g clip-path="url(#clip-flags)" transform="translate(199, 1053)"></g>
<line x1="241" y1="1040" x2="241" y2="1066" stroke="#CCCCCC"/>
<g clip-path="url(#clip-card)"><text x="249" y="1057" class="cell-text">0..1</text></g>
<line x1="296" y1="1040" x2="296" y2="1066" stroke="#CCCCCC"/>
<g clip-path="url(#clip-type)">
<text x="304" y="1056" class="link-text">Period</text>
</g>
<line x1="516" y1="1040" x2="516" y2="1066" stroke="#CCCCCC"/>
<text x="524" y="1056" class="not-used">Obdobje udeležbe akterja</text>
<rect x="0" y="1066" width="908" height="26" fill="#F8F8F8"/>
<line x1="0" y1="1092" x2="908" y2="1092" stroke="#CCCCCC" stroke-width="0.5"/>
<line x1="18.000000" y1="1066.000000" x2="18.000000" y2="1092.000000" stroke="#CCCCCC" stroke-width="1.000000"/><line x1="38.000000" y1="1066.000000" x2="38.000000" y2="1092.000000" stroke="#CCCCCC" stroke-width="1.000000"/><line x1="38.000000" y1="1076.000000" x2="46.000000" y2="1076.000000" stroke="#CCCCCC" stroke-width="1.000000"/><polygon points="55.000000,1069.000000 62.000000,1076.000000 55.000000,1083.000000 48.000000,1076.000000"
        fill="#005EB8" stroke="#005EB8" stroke-width="0.5"/><g clip-path="url(#clip-name)">
<text x="66" y="1082" class="link-text">attendance-status</text>
</g>
<line x1="191" y1="1066" x2="191" y2="1092" stroke="#CCCCCC"/>
<g clip-path="url(#clip-flags)" transform="translate(199, 1079)"></g>
<line x1="241" y1="1066" x2="241" y2="1092" stroke="#CCCCCC"/>
<g clip-path="url(#clip-card)"><text x="249" y="1083" class="cell-text">0..1</text></g>
<line x1="296" y1="1066" x2="296" y2="1092" stroke="#CCCCCC"/>
<g clip-path="url(#clip-type)">
<text x="304" y="1082" class="link-text">code</text>
</g>
<line x1="516" y1="1066" x2="516" y2="1092" stroke="#CCCCCC"/>
<text x="524" y="1082" class="cell-text">Razširitev za klinični potek: arrived, noshow, fulfilled</text>
<rect x="0" y="1092" width="908" height="42" fill="#FFFFFF"/>
<line x1="0" y1="1134" x2="908" y2="1134" stroke="#CCCCCC" stroke-width="0.5"/>
<line x1="18.000000" y1="1092.000000" x2="18.000000" y2="1102.000000" stroke="#CCCCCC" stroke-width="1.000000"/><line x1="18.000000" y1="1102.000000" x2="26.000000" y2="1102.000000" stroke="#CCCCCC" stroke-width="1.000000"/><polygon points="35.000000,1095.000000 42.000000,1102.000000 35.000000,1109.000000 28.000000,1102.000000"
        fill="#005EB8" stroke="#005EB8" stroke-width="0.5"/><g clip-path="url(#clip-name)">
<text x="46" y="1108" class="not-used">requestedPeriod</text>
</g>
<line x1="191" y1="1092" x2="191" y2="1134" stroke="#CCCCCC"/>
<g clip-path="url(#clip-flags)" transform="translate(199, 1113)"></g>
<line x1="241" y1="1092" x2="241" y2="1134" stroke="#CCCCCC"/>
<g clip-path="url(#clip-card)"><text x="249" y="1117" class="cell-text">0..*</text></g>
<line x1="296" y1="1092" x2="296" y2="1134" stroke="#CCCCCC"/>
<g clip-path="url(#clip-type)">
<text x="304" y="1108" class="link-text">Period</text>
</g>
<line x1="516" y1="1092" x2="516" y2="1134" stroke="#CCCCCC"/>
<text x="524" y="1108" class="not-used">Potencialni datumski/časovni intervali, zahtevani za dodelitev</text>
<text x="524" y="1124" class="not-used">termina</text>
</svg>