<?xml version="1.0" encoding="UTF-8"?>
<svg xmlns="http://www.w3.org/2000/svg" xmlns:xlink="http://www.w3.org/1999/xlink"
     width="908" height="1104" viewBox="0 0 908 1104">
<defs>
    <style>
        .header-text { font-family: Arial, sans-serif; font-size: 13px; font-weight: bold; fill: #333333; }
        .cell-text { font-family: Arial, sans-serif; font-size: 12px; fill: #333333; }
        .link-text { font-family: Arial, sans-serif; font-size: 12px; fill: #005EB8; cursor: pointer; }
        .not-used { font-family: Arial, sans-serif; font-size: 12px; fill: #999999; font-style: italic; }
        .todo { font-family: Arial, sans-serif; font-size: 12px; fill: #FF6600; font-weight: bold; }
        .flag-box { font-family: Arial, sans-serif; font-size: 10px; fill: #333333; }
        .title-text { font-family: Arial, sans-serif; font-size: 14px; font-weight: bold; fill: #333333; }
    </style>
    <clipPath id="clip-name"><rect x="0" y="0" width="183" height="1104"/></clipPath>
    <clipPath id="clip-flags"><rect x="183" y="0" width="50" height="1104"/></clipPath>
    <clipPath id="clip-card"><rect x="233" y="0" width="55" height="1104"/></clipPath>
    <clipPath id="clip-type"><rect x="288" y="0" width="220" height="1104"/></clipPath>
    <clipPath id="clip-desc"><rect x="508" y="0" width="400" height="1104"/></clipPath>
</defs>
<rect x="0" y="0" width="908" height="32" fill="#F0F0F0" stroke="#CCCCCC"/>
<text x="8" y="21" class="title-text">Structure</text>
<rect x="0" y="32" width="908" height="28" fill="#F0F0F0" stroke="#CCCCCC"/>
<text x="14" y="51" class="header-text">Name</text>
<line x1="191" y1="32" x2="191" y2="60" stroke="#CCCCCC"/>
<text x="197" y="51" class="header-text">Flags</text>
<line x1="241" y1="32" x2="241" y2="60" stroke="#CCCCCC"/>
<text x="247" y="51" class="header-text">Card.</text>
<line x1="296" y1="32" x2="296" y2="60" stroke="#CCCCCC"/>
<text x="302" y="51" class="header-text">Type</text>
<line x1="516" y1="32" x2="516" y2="60" stroke="#CCCCCC"/>
<text x="522" y="51" class="header-text">Description &amp; Constraints</text>
<rect x="0" y="60" width="908" height="42" fill="#FFFFFF"/>
<line x1="0" y1="102" x2="908" y2="102" stroke="#CCCCCC" stroke-width="0.5"/>
<g transform="translate(8.000000,63.000000)">
    <path d="M0,1.960000 L0,9.800000 L12.600000,9.800000 L12.600000,0 L5.040000,0 L5.040000,1.960000 L0,1.960000 Z"
          fill="#FDB813" stroke="#FDB813" stroke-width="1"/></g><g clip-path="url(#clip-name)">
<text x="26" y="76" class="link-text">Appointment</text>
</g>
<line x1="191" y1="60" x2="191" y2="102" stroke="#CCCCCC"/>
<g clip-path="url(#clip-flags)" transform="translate(199, 81)"><rect x="0" y="-8" width="20" height="14" fill="none" stroke="#CCCCCC" rx="2"/><text x="3" y="2" class="flag-box">TU</text></g>
<line x1="241" y1="60" x2="241" y2="102" stroke="#CCCCCC"/>
<g clip-path="url(#clip-card)"><text x="249" y="85" class="cell-text"></text></g>
<line x1="296" y1="60" x2="296" y2="102" stroke="#CCCCCC"/>
<g clip-path="url(#clip-type)">
<text x="304" y="76" class="link-text">DomainResource</text>
</g>
<line x1="516" y1="60" x2="516" y2="102" stroke="#CCCCCC"/>
<text x="524" y="76" class="cell-text">A booking of a healthcare event among patient(s), practitioner(s),</text>
<text x="524" y="92" class="cell-text">related person(s) and/or device(s) for a specific date/time</text>
<rect x="0" y="102" width="908" height="26" fill="#F8F8F8"/>
<line x1="0" y1="128" x2="908" y2="128" stroke="#CCCCCC" stroke-width="0.5"/>
<line x1="18.000000" y1="102.000000" x2="18.000000" y2="128.000000" stroke="#CCCCCC" stroke-width="1.000000"/><line x1="18.000000" y1="112.000000" x2="26.000000" y2="112.000000" stroke="#CCCCCC" stroke-width="1.000000"/><polygon points="35.000000,105.000000 42.000000,112.000000 35.000000,119.000000 28.000000,112.000000"
        fill="#005EB8" stroke="#005EB8" stroke-width="0.5"/><g clip-path="url(#clip-name)">
<text x="46" y="118" class="link-text">identifier</text>
</g>
<line x1="191" y1="102" x2="191" y2="128" stroke="#CCCCCC"/>
<g clip-path="url(#clip-flags)" transform="translate(199, 115)"><text x="0" y="2" class="flag-box">Σ</text></g>
<line x1="241" y1="102" x2="241" y2="128" stroke="#CCCCCC"/>
<g clip-path="url(#clip-card)"><text x="249" y="119" class="cell-text">0..*</text></g>
<line x1="296" y1="102" x2="296" y2="128" stroke="#CCCCCC"/>
<g clip-path="url(#clip-type)">
<a xlink:href="https://hl7.org/fhir/R4B/datatypes.html#Identifier" target="_blank"><text x="304" y="118" class="link-text">Identifier</text></a>
</g>
<line x1="516" y1="102" x2="516" y2="128" stroke="#CCCCCC"/>
<text x="524" y="118" class="cell-text">External identifiers for this element - Also used as HIS identifier</text>
<rect x="0" y="128" width="908" height="42" fill="#FFFFFF"/>
<line x1="0" y1="170" x2="908" y2="170" stroke="#CCCCCC" stroke-width="0.5"/>
<line x1="18.000000" y1="128.000000" x2="18.000000" y2="170.000000" stroke="#CCCCCC" stroke-width="1.000000"/><line x1="18.000000" y1="138.000000" x2="26.000000" y2="138.000000" stroke="#CCCCCC" stroke-width="1.000000"/><polygon points="35.000000,131.000000 42.000000,138.000000 35.000000,145.000000 28.000000,138.000000"
        fill="#005EB8" stroke="#005EB8" stroke-width="0.5"/><g clip-path="url(#clip-name)">
<text x="46" y="144" class="link-text">status</text>
</g>
<line x1="191" y1="128" x2="191" y2="170" stroke="#CCCCCC"/>
<g clip-path="url(#clip-flags)" transform="translate(199, 149)"><text x="0" y="2" class="flag-box">?!Σ</text><text x="32" y="2" class="flag-box">Σ</text></g>
<line x1="241" y1="128" x2="241" y2="170" stroke="#CCCCCC"/>
<g clip-path="url(#clip-card)"><text x="249" y="153" class="cell-text">1..1</text></g>
<line x1="296" y1="128" x2="296" y2="170" stroke="#CCCCCC"/>
<g clip-path="url(#clip-type)">
<text x="304" y="144" class="link-text">code</text>
</g>
<line x1="516" y1="128" x2="516" y2="170" stroke="#CCCCCC"/>
<text x="524" y="144" class="cell-text">Appointment status - Only booked and cancelled are used at the</text>
<text x="524" y="160" class="cell-text">appointment level</text>
<rect x="0" y="170" width="908" height="42" fill="#F8F8F8"/>
<line x1="0" y1="212" x2="908" y2="212" stroke="#CCCCCC" stroke-width="0.5"/>
<line x1="18.000000" y1="170.000000" x2="18.000000" y2="212.000000" stroke="#CCCCCC" stroke-width="1.000000"/><line x1="18.000000" y1="180.000000" x2="26.000000" y2="180.000000" stroke="#CCCCCC" stroke-width="1.000000"/><polygon points="35.000000,173.000000 42.000000,180.000000 35.000000,187.000000 28.000000,180.000000"
        fill="#005EB8" stroke="#005EB8" stroke-width="0.5"/><g clip-path="url(#clip-name)">
<text x="46" y="186" class="link-text">cancelationReason</text>
</g>
<line x1="191" y1="170" x2="191" y2="212" stroke="#CCCCCC"/>
<g clip-path="url(#clip-flags)" transform="translate(199, 191)"><text x="0" y="2" class="flag-box">Σ</text></g>
<line x1="241" y1="170" x2="241" y2="212" stroke="#CCCCCC"/>
<g clip-path="url(#clip-card)"><text x="249" y="195" class="cell-text">0..1</text></g>
<line x1="296" y1="170" x2="296" y2="212" stroke="#CCCCCC"/>
<g clip-path="url(#clip-type)">
<text x="304" y="186" class="link-text">CodeableConcept</text>
</g>
<line x1="516" y1="170" x2="516" y2="212" stroke="#CCCCCC"/>
<text x="524" y="186" class="cell-text">Coded reason for appointment cancellation - References</text>
<text x="524" y="202" class="cell-text">AppointmentCancellationReason</text>
<rect x="0" y="212" width="908" height="42" fill="#FFFFFF"/>
<line x1="0" y1="254" x2="908" y2="254" stroke="#CCCCCC" stroke-width="0.5"/>
<line x1="18.000000" y1="212.000000" x2="18.000000" y2="254.000000" stroke="#CCCCCC" stroke-width="1.000000"/><line x1="18.000000" y1="222.000000" x2="26.000000" y2="222.000000" stroke="#CCCCCC" stroke-width="1.000000"/><polygon points="35.000000,215.000000 42.000000,222.000000 35.000000,229.000000 28.000000,222.000000"
        fill="#005EB8" stroke="#005EB8" stroke-width="0.5"/><g clip-path="url(#clip-name)">
<text x="46" y="228" class="link-text">serviceCategory</text>
</g>
<line x1="191" y1="212" x2="191" y2="254" stroke="#CCCCCC"/>
<g clip-path="url(#clip-flags)" transform="translate(199, 233)"><text x="0" y="2" class="flag-box">Σ</text></g>
<line x1="241" y1="212" x2="241" y2="254" stroke="#CCCCCC"/>
<g clip-path="url(#clip-card)"><text x="249" y="237" class="cell-text">0..*</text></g>
<line x1="296" y1="212" x2="296" y2="254" stroke="#CCCCCC"/>
<g clip-path="url(#clip-type)">
<a xlink:href="https://hl7.org/fhir/R4B/valueset-service-category.html" target="_blank"><text x="304" y="228" class="link-text">CodeableConcept</text></a>
</g>
<line x1="516" y1="212" x2="516" y2="254" stroke="#CCCCCC"/>
<text x="524" y="228" class="cell-text">Broad categorization of the service to be performed - Type of care -</text>
<text x="524" y="244" class="cell-text">also used in Encounter</text>
<rect x="0" y="254" width="908" height="42" fill="#F8F8F8"/>
<line x1="0" y1="296" x2="908" y2="296" stroke="#CCCCCC" stroke-width="0.5"/>
<line x1="18.000000" y1="254.000000" x2="18.000000" y2="296.000000" stroke="#CCCCCC" stroke-width="1.000000"/><line x1="18.000000" y1="264.000000" x2="26.000000" y2="264.000000" stroke="#CCCCCC" stroke-width="1.000000"/><polygon points="35.000000,257.000000 42.000000,264.000000 35.000000,271.000000 28.000000,264.000000"
        fill="#005EB8" stroke="#005EB8" stroke-width="0.5"/><g clip-path="url(#clip-name)">
<text x="46" y="270" class="link-text">serviceType</text>
</g>
<line x1="191" y1="254" x2="191" y2="296" stroke="#CCCCCC"/>
<g clip-path="url(#clip-flags)" transform="translate(199, 275)"><text x="0" y="2" class="flag-box">Σ</text></g>
<line x1="241" y1="254" x2="241" y2="296" stroke="#CCCCCC"/>
<g clip-path="url(#clip-card)"><text x="249" y="279" class="cell-text">0..*</text></g>
<line x1="296" y1="254" x2="296" y2="296" stroke="#CCCCCC"/>
<g clip-path="url(#clip-type)">
<text x="304" y="270" class="link-text">CodeableConcept</text>
</g>
<line x1="516" y1="254" x2="516" y2="296" stroke="#CCCCCC"/>
<text x="524" y="270" class="cell-text">Specific service to be performed during this appointment - VZS -</text>
<text x="524" y="286" class="cell-text">https://terminology.ih.ezdrav.si/terminology/rest/v1/fhir</text>
<rect x="0" y="296" width="908" height="26" fill="#FFFFFF"/>
<line x1="0" y1="322" x2="908" y2="322" stroke="#CCCCCC" stroke-width="0.5"/>
<line x1="18.000000" y1="296.000000" x2="18.000000" y2="322.000000" stroke="#CCCCCC" stroke-width="1.000000"/><line x1="18.000000" y1="306.000000" x2="26.000000" y2="306.000000" stroke="#CCCCCC" stroke-width="1.000000"/><polygon points="35.000000,299.000000 42.000000,306.000000 35.000000,313.000000 28.000000,306.000000"
        fill="#005EB8" stroke="#005EB8" stroke-width="0.5"/><g clip-path="url(#clip-name)">
<text x="46" y="312" class="link-text">specialty</text>
</g>
<line x1="191" y1="296" x2="191" y2="322" stroke="#CCCCCC"/>
<g clip-path="url(#clip-flags)" transform="translate(199, 309)"><text x="0" y="2" class="flag-box">Σ</text></g>
<line x1="241" y1="296" x2="241" y2="322" stroke="#CCCCCC"/>
<g clip-path="url(#clip-card)"><text x="249" y="313" class="cell-text">0..*</text></g>
<line x1="296" y1="296" x2="296" y2="322" stroke="#CCCCCC"/>
<g clip-path="url(#clip-type)">
<text x="304" y="312" class="link-text">CodeableConcept</text>
</g>
<line x1="516" y1="296" x2="516" y2="322" stroke="#CCCCCC"/>
<text x="524" y="312" class="cell-text">Specialty of the practitioner - VZD</text>
<rect x="0" y="322" width="908" height="42" fill="#F8F8F8"/>
<line x1="0" y1="364" x2="908" y2="364" stroke="#CCCCCC" stroke-width="0.5"/>
<line x1="18.000000" y1="322.000000" x2="18.000000" y2="364.000000" stroke="#CCCCCC" stroke-width="1.000000"/><line x1="18.000000" y1="332.000000" x2="26.000000" y2="332.000000" stroke="#CCCCCC" stroke-width="1.000000"/><polygon points="35.000000,325.000000 42.000000,332.000000 35.000000,339.000000 28.000000,332.000000"
        fill="#005EB8" stroke="#005EB8" stroke-width="0.5"/><g clip-path="url(#clip-name)">
<text x="46" y="338" class="link-text">appointmentType</text>
</g>
<line x1="191" y1="322" x2="191" y2="364" stroke="#CCCCCC"/>
<g clip-path="url(#clip-flags)" transform="translate(199, 343)"><text x="0" y="2" class="flag-box">Σ</text></g>
<line x1="241" y1="322" x2="241" y2="364" stroke="#CCCCCC"/>
<g clip-path="url(#clip-card)"><text x="249" y="347" class="cell-text">0..1</text></g>
<line x1="296" y1="322" x2="296" y2="364" stroke="#CCCCCC"/>
<g clip-path="url(#clip-type)">
<a xlink:href="https://terminology.hl7.org/3.1.0/CodeSystem-v2-0276.html" target="_blank"><text x="304" y="338" class="link-text">CodeableConcept</text></a>
</g>
<line x1="516" y1="322" x2="516" y2="364" stroke="#CCCCCC"/>
<text x="524" y="338" class="todo">TODO: Type of appointment or patient - TODO: Consider</text>
<text x="524" y="354" class="todo">repurposing for other uses</text>
<rect x="0" y="364" width="908" height="26" fill="#FFFFFF"/>
<line x1="0" y1="390" x2="908" y2="390" stroke="#CCCCCC" stroke-width="0.5"/>
<line x1="18.000000" y1="364.000000" x2="18.000000" y2="390.000000" stroke="#CCCCCC" stroke-width="1.000000"/><line x1="18.000000" y1="374.000000" x2="26.000000" y2="374.000000" stroke="#CCCCCC" stroke-width="1.000000"/><polygon points="35.000000,367.000000 42.000000,374.000000 35.000000,381.000000 28.000000,374.000000"
        fill="#005EB8" stroke="#005EB8" stroke-width="0.5"/><g clip-path="url(#clip-name)">
<text x="46" y="380" class="not-used">reasonCode</text>
</g>
<line x1="191" y1="364" x2="191" y2="390" stroke="#CCCCCC"/>
<g clip-path="url(#clip-flags)" transform="translate(199, 377)"><text x="0" y="2" class="flag-box">Σ</text></g>
<line x1="241" y1="364" x2="241" y2="390" stroke="#CCCCCC"/>
<g clip-path="url(#clip-card)"><text x="249" y="381" class="cell-text">0..*</text></g>
<line x1="296" y1="364" x2="296" y2="390" stroke="#CCCCCC"/>
<g clip-path="url(#clip-type)">
<text x="304" y="380" class="link-text">CodeableConcept</text>
</g>
<line x1="516" y1="364" x2="516" y2="390" stroke="#CCCCCC"/>
<text x="524" y="380" class="not-used">Coded reason for scheduling this appointment</text>
<rect x="0" y="390" width="908" height="58" fill="#F8F8F8"/>
<line x1="0" y1="448" x2="908" y2="448" stroke="#CCCCCC" stroke-width="0.5"/>
<line x1="18.000000" y1="390.000000" x2="18.000000" y2="448.000000" stroke="#CCCCCC" stroke-width="1.000000"/><line x1="18.000000" y1="400.000000" x2="26.000000" y2="400.000000" stroke="#CCCCCC" stroke-width="1.000000"/><g>
    <line x1="29.400000" y1="400.000000" x2="36.120000" y2="400.000000" stroke="#005EB8" stroke-width="2"/>
    <polygon points="35.000000,396.640000 40.600000,400.000000 35.000000,403.360000" fill="#005EB8"/>
</g><g clip-path="url(#clip-name)">
<text x="46" y="406" class="not-used">reasonReference</text>
</g>
<line x1="191" y1="390" x2="191" y2="448" stroke="#CCCCCC"/>
<g clip-path="url(#clip-flags)" transform="translate(199, 419)"></g>
<line x1="241" y1="390" x2="241" y2="448" stroke="#CCCCCC"/>
<g clip-path="url(#clip-card)"><text x="249" y="423" class="cell-text">0..*</text></g>
<line x1="296" y1="390" x2="296" y2="448" stroke="#CCCCCC"/>
<g clip-path="url(#clip-type)">
<text x="304" y="406" class="link-text">Reference(Condition | Procedure |</text>
<text x="304" y="422" class="link-text">Observation |</text>
<text x="304" y="438" class="link-text">ImmunizationRecommendation)</text>
</g>
<line x1="516" y1="390" x2="516" y2="448" stroke="#CCCCCC"/>
<text x="524" y="406" class="not-used">Reason for the appointment (reference)</text>
<rect x="0" y="448" width="908" height="26" fill="#FFFFFF"/>
<line x1="0" y1="474" x2="908" y2="474" stroke="#CCCCCC" stroke-width="0.5"/>
<line x1="18.000000" y1="448.000000" x2="18.000000" y2="474.000000" stroke="#CCCCCC" stroke-width="1.000000"/><line x1="18.000000" y1="458.000000" x2="26.000000" y2="458.000000" stroke="#CCCCCC" stroke-width="1.000000"/><polygon points="35.000000,451.000000 42.000000,458.000000 35.000000,465.000000 28.000000,458.000000"
        fill="#005EB8" stroke="#005EB8" stroke-width="0.5"/><g clip-path="url(#clip-name)">
<text x="46" y="464" class="link-text">priority</text>
</g>
<line x1="191" y1="448" x2="191" y2="474" stroke="#CCCCCC"/>
<g clip-path="url(#clip-flags)" transform="translate(199, 461)"></g>
<line x1="241" y1="448" x2="241" y2="474" stroke="#CCCCCC"/>
<g clip-path="url(#clip-card)"><text x="249" y="465" class="cell-text">0..1</text></g>
<line x1="296" y1="448" x2="296" y2="474" stroke="#CCCCCC"/>
<g clip-path="url(#clip-type)">
<text x="304" y="464" class="link-text">unsignedInt</text>
</g>
<line x1="516" y1="448" x2="516" y2="474" stroke="#CCCCCC"/>
<text x="524" y="464" class="cell-text">Appointment priority - Used for queue ordering</text>
<rect x="0" y="474" width="908" height="26" fill="#F8F8F8"/>
<line x1="0" y1="500" x2="908" y2="500" stroke="#CCCCCC" stroke-width="0.5"/>
<line x1="18.000000" y1="474.000000" x2="18.000000" y2="500.000000" stroke="#CCCCCC" stroke-width="1.000000"/><line x1="18.000000" y1="484.000000" x2="26.000000" y2="484.000000" stroke="#CCCCCC" stroke-width="1.000000"/><polygon points="35.000000,477.000000 42.000000,484.000000 35.000000,491.000000 28.000000,484.000000"
        fill="#005EB8" stroke="#005EB8" stroke-width="0.5"/><g clip-path="url(#clip-name)">
<text x="46" y="490" class="link-text">description</text>
</g>
<line x1="191" y1="474" x2="191" y2="500" stroke="#CCCCCC"/>
<g clip-path="url(#clip-flags)" transform="translate(199, 487)"></g>
<line x1="241" y1="474" x2="241" y2="500" stroke="#CCCCCC"/>
<g clip-path="url(#clip-card)"><text x="249" y="491" class="cell-text">0..1</text></g>
<line x1="296" y1="474" x2="296" y2="500" stroke="#CCCCCC"/>
<g clip-path="url(#clip-type)">
<text x="304" y="490" class="link-text">string</text>
</g>
<line x1="516" y1="474" x2="516" y2="500" stroke="#CCCCCC"/>
<text x="524" y="490" class="cell-text">Shown in the subject line of a meeting request - Used for notes</text>
<rect x="0" y="500" width="908" height="26" fill="#FFFFFF"/>
<line x1="0" y1="526" x2="908" y2="526" stroke="#CCCCCC" stroke-width="0.5"/>
<line x1="18.000000" y1="500.000000" x2="18.000000" y2="526.000000" stroke="#CCCCCC" stroke-width="1.000000"/><line x1="18.000000" y1="510.000000" x2="26.000000" y2="510.000000" stroke="#CCCCCC" stroke-width="1.000000"/><g>
    <line x1="29.400000" y1="510.000000" x2="36.120000" y2="510.000000" stroke="#005EB8" stroke-width="2"/>
    <polygon points="35.000000,506.640000 40.600000,510.000000 35.000000,513.360000" fill="#005EB8"/>
</g><g clip-path="url(#clip-name)">
<text x="46" y="516" class="not-used">supportingInformation</text>
</g>
<line x1="191" y1="500" x2="191" y2="526" stroke="#CCCCCC"/>
<g clip-path="url(#clip-flags)" transform="translate(199, 513)"></g>
<line x1="241" y1="500" x2="241" y2="526" stroke="#CCCCCC"/>
<g clip-path="url(#clip-card)"><text x="249" y="517" class="cell-text">0..*</text></g>
<line x1="296" y1="500" x2="296" y2="526" stroke="#CCCCCC"/>
<g clip-path="url(#clip-type)">
<text x="304" y="516" class="link-text">Reference(Any)</text>
</g>
<line x1="516" y1="500" x2="516" y2="526" stroke="#CCCCCC"/>
<text x="524" y="516" class="not-used">Additional information to support the appointment</text>
<rect x="0" y="526" width="908" height="26" fill="#F8F8F8"/>
<line x1="0" y1="552" x2="908" y2="552" stroke="#CCCCCC" stroke-width="0.5"/>
<line x1="18.000000" y1="526.000000" x2="18.000000" y2="552.000000" stroke="#CCCCCC" stroke-width="1.000000"/><line x1="18.000000" y1="536.000000" x2="26.000000" y2="536.000000" stroke="#CCCCCC" stroke-width="1.000000"/><polygon points="35.000000,529.000000 42.000000,536.000000 35.000000,543.000000 28.000000,536.000000"
        fill="#005EB8" stroke="#005EB8" stroke-width="0.5"/><g clip-path="url(#clip-name)">
<text x="46" y="542" class="link-text">start</text>
</g>
<line x1="191" y1="526" x2="191" y2="552" stroke="#CCCCCC"/>
<g clip-path="url(#clip-flags)" transform="translate(199, 539)"><text x="0" y="2" class="flag-box">Σ</text></g>
<line x1="241" y1="526" x2="241" y2="552" stroke="#CCCCCC"/>
<g clip-path="url(#clip-card)"><text x="249" y="543" class="cell-text">0..1</text></g>
<line x1="296" y1="526" x2="296" y2="552" stroke="#CCCCCC"/>
<g clip-path="url(#clip-type)">
<text x="304" y="542" class="link-text">instant</text>
</g>
<line x1="516" y1="526" x2="516" y2="552" stroke="#CCCCCC"/>
<text x="524" y="542" class="cell-text">When appointment should start</text>
<rect x="0" y="552" width="908" height="26" fill="#FFFFFF"/>
<line x1="0" y1="578" x2="908" y2="578" stroke="#CCCCCC" stroke-width="0.5"/>
<line x1="18.000000" y1="552.000000" x2="18.000000" y2="578.000000" stroke="#CCCCCC" stroke-width="1.000000"/><line x1="18.000000" y1="562.000000" x2="26.000000" y2="562.000000" stroke="#CCCCCC" stroke-width="1.000000"/><polygon points="35.000000,555.000000 42.000000,562.000000 35.000000,569.000000 28.000000,562.000000"
        fill="#005EB8" stroke="#005EB8" stroke-width="0.5"/><g clip-path="url(#clip-name)">
<text x="46" y="568" class="link-text">end</text>
</g>
<line x1="191" y1="552" x2="191" y2="578" stroke="#CCCCCC"/>
<g clip-path="url(#clip-flags)" transform="translate(199, 565)"><text x="0" y="2" class="flag-box">Σ</text></g>
<line x1="241" y1="552" x2="241" y2="578" stroke="#CCCCCC"/>
<g clip-path="url(#clip-card)"><text x="249" y="569" class="cell-text">0..1</text></g>
<line x1="296" y1="552" x2="296" y2="578" stroke="#CCCCCC"/>
<g clip-path="url(#clip-type)">
<text x="304" y="568" class="link-text">instant</text>
</g>
<line x1="516" y1="552" x2="516" y2="578" stroke="#CCCCCC"/>
<text x="524" y="568" class="cell-text">When appointment should end</text>
<rect x="0" y="578" width="908" height="42" fill="#F8F8F8"/>
<line x1="0" y1="620" x2="908" y2="620" stroke="#CCCCCC" stroke-width="0.5"/>
<line x1="18.000000" y1="578.000000" x2="18.000000" y2="620.000000" stroke="#CCCCCC" stroke-width="1.000000"/><line x1="18.000000" y1="588.000000" x2="26.000000" y2="588.000000" stroke="#CCCCCC" stroke-width="1.000000"/><polygon points="35.000000,581.000000 42.000000,588.000000 35.000000,595.000000 28.000000,588.000000"
        fill="#005EB8" stroke="#005EB8" stroke-width="0.5"/><g clip-path="url(#clip-name)">
<text x="46" y="594" class="link-text">minutesDuration</text>
</g>
<line x1="191" y1="578" x2="191" y2="620" stroke="#CCCCCC"/>
<g clip-path="url(#clip-flags)" transform="translate(199, 599)"></g>
<line x1="241" y1="578" x2="241" y2="620" stroke="#CCCCCC"/>
<g clip-path="url(#clip-card)"><text x="249" y="603" class="cell-text">0..1</text></g>
<line x1="296" y1="578" x2="296" y2="620" stroke="#CCCCCC"/>
<g clip-path="url(#clip-type)">
<text x="304" y="594" class="link-text">positiveInt</text>
</g>
<line x1="516" y1="578" x2="516" y2="620" stroke="#CCCCCC"/>
<text x="524" y="594" class="todo">TODO: Can be less than start/end (e.g., estimate) - TODO:</text>
<text x="524" y="610" class="todo">Determine if unused or calculated</text>
<rect x="0" y="620" width="908" height="26" fill="#FFFFFF"/>
<line x1="0" y1="646" x2="908" y2="646" stroke="#CCCCCC" stroke-width="0.5"/>
<line x1="18.000000" y1="620.000000" x2="18.000000" y2="646.000000" stroke="#CCCCCC" stroke-width="1.000000"/><line x1="18.000000" y1="630.000000" x2="26.000000" y2="630.000000" stroke="#CCCCCC" stroke-width="1.000000"/><g>
    <line x1="29.400000" y1="630.000000" x2="36.120000" y2="630.000000" stroke="#005EB8" stroke-width="2"/>
    <polygon points="35.000000,626.640000 40.600000,630.000000 35.000000,633.360000" fill="#005EB8"/>
</g><g clip-path="url(#clip-name)">
<text x="46" y="636" class="not-used">slot</text>
</g>
<line x1="191" y1="620" x2="191" y2="646" stroke="#CCCCCC"/>
<g clip-path="url(#clip-flags)" transform="translate(199, 633)"></g>
<line x1="241" y1="620" x2="241" y2="646" stroke="#CCCCCC"/>
<g clip-path="url(#clip-card)"><text x="249" y="637" class="cell-text">0..*</text></g>
<line x1="296" y1="620" x2="296" y2="646" stroke="#CCCCCC"/>
<g clip-path="url(#clip-type)">
<text x="304" y="636" class="link-text">Reference(Slot)</text>
</g>
<line x1="516" y1="620" x2="516" y2="646" stroke="#CCCCCC"/>
<text x="524" y="636" class="not-used">Time slots that this appointment is filling</text>
<rect x="0" y="646" width="908" height="26" fill="#F8F8F8"/>
<line x1="0" y1="672" x2="908" y2="672" stroke="#CCCCCC" stroke-width="0.5"/>
<line x1="18.000000" y1="646.000000" x2="18.000000" y2="672.000000" stroke="#CCCCCC" stroke-width="1.000000"/><line x1="18.000000" y1="656.000000" x2="26.000000" y2="656.000000" stroke="#CCCCCC" stroke-width="1.000000"/><polygon points="35.000000,649.000000 42.000000,656.000000 35.000000,663.000000 28.000000,656.000000"
        fill="#005EB8" stroke="#005EB8" stroke-width="0.5"/><g clip-path="url(#clip-name)">
<text x="46" y="662" class="link-text">created</text>
</g>
<line x1="191" y1="646" x2="191" y2="672" stroke="#CCCCCC"/>
<g clip-path="url(#clip-flags)" transform="translate(199, 659)"></g>
<line x1="241" y1="646" x2="241" y2="672" stroke="#CCCCCC"/>
<g clip-path="url(#clip-card)"><text x="249" y="663" class="cell-text">0..1</text></g>
<line x1="296" y1="646" x2="296" y2="672" stroke="#CCCCCC"/>
<g clip-path="url(#clip-type)">
<text x="304" y="662" class="link-text">dateTime</text>
</g>
<line x1="516" y1="646" x2="516" y2="672" stroke="#CCCCCC"/>
<text x="524" y="662" class="cell-text">Date this appointment was initially created</text>
<rect x="0" y="672" width="908" height="26" fill="#FFFFFF"/>
<line x1="0" y1="698" x2="908" y2="698" stroke="#CCCCCC" stroke-width="0.5"/>
<line x1="18.000000" y1="672.000000" x2="18.000000" y2="698.000000" stroke="#CCCCCC" stroke-width="1.000000"/><line x1="18.000000" y1="682.000000" x2="26.000000" y2="682.000000" stroke="#CCCCCC" stroke-width="1.000000"/><polygon points="35.000000,675.000000 42.000000,682.000000 35.000000,689.000000 28.000000,682.000000"
        fill="#005EB8" stroke="#005EB8" stroke-width="0.5"/><g clip-path="url(#clip-name)">
<text x="46" y="688" class="not-used">comment</text>
</g>
<line x1="191" y1="672" x2="191" y2="698" stroke="#CCCCCC"/>
<g clip-path="url(#clip-flags)" transform="translate(199, 685)"></g>
<line x1="241" y1="672" x2="241" y2="698" stroke="#CCCCCC"/>
<g clip-path="url(#clip-card)"><text x="249" y="689" class="cell-text">0..1</text></g>
<line x1="296" y1="672" x2="296" y2="698" stroke="#CCCCCC"/>
<g clip-path="url(#clip-type)">
<text x="304" y="688" class="link-text">string</text>
</g>
<line x1="516" y1="672" x2="516" y2="698" stroke="#CCCCCC"/>
<text x="524" y="688" class="not-used">Additional comments</text>
<rect x="0" y="698" width="908" height="42" fill="#F8F8F8"/>
<line x1="0" y1="740" x2="908" y2="740" stroke="#CCCCCC" stroke-width="0.5"/>
<line x1="18.000000" y1="698.000000" x2="18.000000" y2="740.000000" stroke="#CCCCCC" stroke-width="1.000000"/><line x1="18.000000" y1="708.000000" x2="26.000000" y2="708.000000" stroke="#CCCCCC" stroke-width="1.000000"/><polygon points="35.000000,701.000000 42.000000,708.000000 35.000000,715.000000 28.000000,708.000000"
        fill="#005EB8" stroke="#005EB8" stroke-width="0.5"/><g clip-path="url(#clip-name)">
<text x="46" y="714" class="link-text">patientInstruction</text>
</g>
<line x1="191" y1="698" x2="191" y2="740" stroke="#CCCCCC"/>
<g clip-path="url(#clip-flags)" transform="translate(199, 719)"></g>
<line x1="241" y1="698" x2="241" y2="740" stroke="#CCCCCC"/>
<g clip-path="url(#clip-card)"><text x="249" y="723" class="cell-text">0..1</text></g>
<line x1="296" y1="698" x2="296" y2="740" stroke="#CCCCCC"/>
<g clip-path="url(#clip-type)">
<text x="304" y="714" class="link-text">string</text>
</g>
<line x1="516" y1="698" x2="516" y2="740" stroke="#CCCCCC"/>
<text x="524" y="714" class="cell-text">Detailed information and instructions for patient - Text displayed to</text>
<text x="524" y="730" class="cell-text">patient</text>
<rect x="0" y="740" width="908" height="58" fill="#FFFFFF"/>
<line x1="0" y1="798" x2="908" y2="798" stroke="#CCCCCC" stroke-width="0.5"/>
<line x1="18.000000" y1="740.000000" x2="18.000000" y2="798.000000" stroke="#CCCCCC" stroke-width="1.000000"/><line x1="18.000000" y1="750.000000" x2="26.000000" y2="750.000000" stroke="#CCCCCC" stroke-width="1.000000"/><g>
    <line x1="29.400000" y1="750.000000" x2="36.120000" y2="750.000000" stroke="#005EB8" stroke-width="2"/>
    <polygon points="35.000000,746.640000 40.600000,750.000000 35.000000,753.360000" fill="#005EB8"/>
</g><g clip-path="url(#clip-name)">
<text x="46" y="756" class="link-text">basedOn</text>
</g>
<line x1="191" y1="740" x2="191" y2="798" stroke="#CCCCCC"/>
<g clip-path="url(#clip-flags)" transform="translate(199, 769)"></g>
<line x1="241" y1="740" x2="241" y2="798" stroke="#CCCCCC"/>
<g clip-path="url(#clip-card)"><text x="249" y="773" class="cell-text">0..*</text></g>
<line x1="296" y1="740" x2="296" y2="798" stroke="#CCCCCC"/>
<g clip-path="url(#clip-type)">
<text x="304" y="756" class="link-text">Reference(ServiceRequest)</text>
</g>
<line x1="516" y1="740" x2="516" y2="798" stroke="#CCCCCC"/>
<text x="524" y="756" class="todo">TODO: Service request this appointment is allocated to -</text>
<text x="524" y="772" class="todo">TODO: Consider creating ServiceRequest for each visit</text>
<text x="524" y="788" class="todo">request</text>
<rect x="0" y="798" width="908" height="42" fill="#F8F8F8"/>
<line x1="0" y1="840" x2="908" y2="840" stroke="#CCCCCC" stroke-width="0.5"/>
<line x1="18.000000" y1="798.000000" x2="18.000000" y2="840.000000" stroke="#CCCCCC" stroke-width="1.000000"/><line x1="18.000000" y1="808.000000" x2="26.000000" y2="808.000000" stroke="#CCCCCC" stroke-width="1.000000"/><g transform="translate(28.000000,801.000000)">
    <path d="M0,1.960000 L0,9.800000 L12.600000,9.800000 L12.600000,0 L5.040000,0 L5.040000,1.960000 L0,1.960000 Z"
          fill="#FFFFFF" stroke="#FDB813" stroke-width="1"/><circle cx="6.300000" cy="5.880000" r="1.680000" fill="#FDB813"/></g><g clip-path="url(#clip-name)">
<text x="46" y="814" class="link-text">participant</text>
</g>
<line x1="191" y1="798" x2="191" y2="840" stroke="#CCCCCC"/>
<g clip-path="url(#clip-flags)" transform="translate(199, 819)"><text x="0" y="2" class="flag-box">I</text></g>
<line x1="241" y1="798" x2="241" y2="840" stroke="#CCCCCC"/>
<g clip-path="url(#clip-card)"><text x="249" y="823" class="cell-text">1..*</text></g>
<line x1="296" y1="798" x2="296" y2="840" stroke="#CCCCCC"/>
<g clip-path="url(#clip-type)">
<text x="304" y="814" class="link-text">BackboneElement</text>
</g>
<line x1="516" y1="798" x2="516" y2="840" stroke="#CCCCCC"/>
<text x="524" y="814" class="cell-text">Participants involved in appointment - Care team, all patients, and</text>
<text x="524" y="830" class="cell-text">locations</text>
<rect x="0" y="840" width="908" height="42" fill="#FFFFFF"/>
<line x1="0" y1="882" x2="908" y2="882" stroke="#CCCCCC" stroke-width="0.5"/>
<line x1="18.000000" y1="840.000000" x2="18.000000" y2="882.000000" stroke="#CCCCCC" stroke-width="1.000000"/><line x1="38.000000" y1="840.000000" x2="38.000000" y2="882.000000" stroke="#CCCCCC" stroke-width="1.000000"/><line x1="38.000000" y1="850.000000" x2="46.000000" y2="850.000000" stroke="#CCCCCC" stroke-width="1.000000"/><polygon points="55.000000,843.000000 62.000000,850.000000 55.000000,857.000000 48.000000,850.000000"
        fill="#005EB8" stroke="#005EB8" stroke-width="0.5"/><g clip-path="url(#clip-name)">
<text x="66" y="856" class="link-text">type</text>
</g>
<line x1="191" y1="840" x2="191" y2="882" stroke="#CCCCCC"/>
<g clip-path="url(#clip-flags)" transform="translate(199, 861)"><text x="0" y="2" class="flag-box">Σ</text></g>
<line x1="241" y1="840" x2="241" y2="882" stroke="#CCCCCC"/>
<g clip-path="url(#clip-card)"><text x="249" y="865" class="cell-text">0..*</text></g>
<line x1="296" y1="840" x2="296" y2="882" stroke="#CCCCCC"/>
<g clip-path="url(#clip-type)">
<text x="304" y="856" class="link-text">CodeableConcept</text>
</g>
<line x1="516" y1="840" x2="516" y2="882" stroke="#CCCCCC"/>
<text x="524" y="856" class="cell-text">Role of participant in the appointment - ADM (admitter) for care</text>
<text x="524" y="872" class="cell-text">team, ATND (attender) for patients</text>
<rect x="0" y="882" width="908" height="74" fill="#F8F8F8"/>
<line x1="0" y1="956" x2="908" y2="956" stroke="#CCCCCC" stroke-width="0.5"/>
<line x1="18.000000" y1="882.000000" x2="18.000000" y2="956.000000" stroke="#CCCCCC" stroke-width="1.000000"/><line x1="38.000000" y1="882.000000" x2="38.000000" y2="956.000000" stroke="#CCCCCC" stroke-width="1.000000"/><line x1="38.000000" y1="892.000000" x2="46.000000" y2="892.000000" stroke="#CCCCCC" stroke-width="1.000000"/><g>
    <line x1="49.400000" y1="892.000000" x2="56.120000" y2="892.000000" stroke="#005EB8" stroke-width="2"/>
    <polygon points="55.000000,888.640000 60.600000,892.000000 55.000000,895.360000" fill="#005EB8"/>
</g><g clip-path="url(#clip-name)">
<text x="66" y="898" class="link-text">actor</text>
</g>
<line x1="191" y1="882" x2="191" y2="956" stroke="#CCCCCC"/>
<g clip-path="url(#clip-flags)" transform="translate(199, 919)"><text x="0" y="2" class="flag-box">Σ</text></g>
<line x1="241" y1="882" x2="241" y2="956" stroke="#CCCCCC"/>
<g clip-path="url(#clip-card)"><text x="249" y="923" class="cell-text">0..1</text></g>
<line x1="296" y1="882" x2="296" y2="956" stroke="#CCCCCC"/>
<g clip-path="url(#clip-type)">
<text x="304" y="898" class="link-text">Reference(Patient | Practitioner |</text>
<text x="304" y="914" class="link-text">PractitionerRole | RelatedPerson |</text>
<text x="304" y="930" class="link-text">Device | HealthcareService |</text>
<text x="304" y="946" class="link-text">Location)</text>
</g>
<line x1="516" y1="882" x2="516" y2="956" stroke="#CCCCCC"/>
<text x="524" y="898" class="cell-text">Person, location/healthcare service, or device - Requires reference</text>
<text x="524" y="914" class="cell-text">to CareTeam</text>
<rect x="0" y="956" width="908" height="26" fill="#FFFFFF"/>
<line x1="0" y1="982" x2="908" y2="982" stroke="#CCCCCC" stroke-width="0.5"/>
<line x1="18.000000" y1="956.000000" x2="18.000000" y2="982.000000" stroke="#CCCCCC" stroke-width="1.000000"/><line x1="38.000000" y1="956.000000" x2="38.000000" y2="982.000000" stroke="#CCCCCC" stroke-width="1.000000"/><line x1="38.000000" y1="966.000000" x2="46.000000" y2="966.000000" stroke="#CCCCCC" stroke-width="1.000000"/><polygon points="55.000000,959.000000 62.000000,966.000000 55.000000,973.000000 48.000000,966.000000"
        fill="#005EB8" stroke="#005EB8" stroke-width="0.5"/><g clip-path="url(#clip-name)">
<text x="66" y="972" class="link-text">required</text>
</g>
<line x1="191" y1="956" x2="191" y2="982" stroke="#CCCCCC"/>
<g clip-path="url(#clip-flags)" transform="translate(199, 969)"><text x="0" y="2" class="flag-box">Σ</text></g>
<line x1="241" y1="956" x2="241" y2="982" stroke="#CCCCCC"/>
<g clip-path="url(#clip-card)"><text x="249" y="973" class="cell-text">0..1</text></g>
<line x1="296" y1="956" x2="296" y2="982" stroke="#CCCCCC"/>
<g clip-path="url(#clip-type)">
<text x="304" y="972" class="link-text">code</text>
</g>
<line x1="516" y1="956" x2="516" y2="982" stroke="#CCCCCC"/>
<text x="524" y="972" class="cell-text">required | optional | information-only - Always required</text>
<rect x="0" y="982" width="908" height="42" fill="#F8F8F8"/>
<line x1="0" y1="1024" x2="908" y2="1024" stroke="#CCCCCC" stroke-width="0.5"/>
<line x1="18.000000" y1="982.000000" x2="18.000000" y2="1024.000000" stroke="#CCCCCC" stroke-width="1.000000"/><line x1="38.000000" y1="982.000000" x2="38.000000" y2="1024.000000" stroke="#CCCCCC" stroke-width="1.000000"/><line x1="38.000000" y1="992.000000" x2="46.000000" y2="992.000000" stroke="#CCCCCC" stroke-width="1.000000"/><polygon points="55.000000,985.000000 62.000000,992.000000 55.000000,999.000000 48.000000,992.000000"
        fill="#005EB8" stroke="#005EB8" stroke-width="0.5"/><g clip-path="url(#clip-name)">
<text x="66" y="998" class="link-text">status</text>
</g>
<line x1="191" y1="982" x2="191" y2="1024" stroke="#CCCCCC"/>
<g clip-path="url(#clip-flags)" transform="translate(199, 1003)"><text x="0" y="2" class="flag-box">Σ</text></g>
<line x1="241" y1="982" x2="241" y2="1024" stroke="#CCCCCC"/>
<g clip-path="url(#clip-card)"><text x="249" y="1007" class="cell-text">1..1</text></g>
<line x1="296" y1="982" x2="296" y2="1024" stroke="#CCCCCC"/>
<g clip-path="url(#clip-type)">
<text x="304" y="998" class="link-text">code</text>
</g>
<line x1="516" y1="982" x2="516" y2="1024" stroke="#CCCCCC"/>
<text x="524" y="998" class="cell-text">accepted | declined | tentative | needs-action - Used for patient</text>
<text x="524" y="1014" class="cell-text">confirmation</text>
<rect x="0" y="1024" width="908" height="26" fill="#FFFFFF"/>
<line x1="0" y1="1050" x2="908" y2="1050" stroke="#CCCCCC" stroke-width="0.5"/>
<line x1="18.000000" y1="1024.000000" x2="18.000000" y2="1050.000000" stroke="#CCCCCC" stroke-width="1.000000"/><line x1="38.000000" y1="1024.000000" x2="38.000000" y2="1034.000000" stroke="#CCCCCC" stroke-width="1.000000"/><line x1="38.000000" y1="1034.000000" x2="46.000000" y2="1034.000000" stroke="#CCCCCC" stroke-width="1.000000"/><polygon points="55.000000,1027.000000 62.000000,1034.000000 55.000000,1041.000000 48.000000,1034.000000"
        fill="#005EB8" stroke="#005EB8" stroke-width="0.5"/><g clip-path="url(#clip-name)">
<text x="66" y="1040" class="not-used">period</text>
</g>
<line x1="191" y1="1024" x2="191" y2="1050" stroke="#CCCCCC"/>
<g clip-path="url(#clip-flags)" transform="translate(199, 1037)"></g>
<line x1="241" y1="1024" x2="241" y2="1050" stroke="#CCCCCC"/>
<g clip-path="url(#clip-card)"><text x="249" y="1041" class="cell-text">0..1</text></g>
<line x1="296" y1="1024" x2="296" y2="1050" stroke="#CCCCCC"/>
<g clip-path="url(#clip-type)">
<text x="304" y="1040" class="link-text">Period</text>
</g>
<line x1="516" y1="1024" x2="516" y2="1050" stroke="#CCCCCC"/>
<text x="524" y="1040" class="not-used">Participation period of the actor</text>
<rect x="0" y="1050" width="908" height="26" fill="#F8F8F8"/>
<line x1="0" y1="1076" x2="908" y2="1076" stroke="#CCCCCC" stroke-width="0.5"/>
<line x1="18.000000" y1="1050.000000" x2="18.000000" y2="1076.000000" stroke="#CCCCCC" stroke-width="1.000000"/><line x1="38.000000" y1="1050.000000" x2="38.000000" y2="1076.000000" stroke="#CCCCCC" stroke-width="1.000000"/><line x1="38.000000" y1="1060.000000" x2="46.000000" y2="1060.000000" stroke="#CCCCCC" stroke-width="1.000000"/><g>
    <circle cx="55.000000" cy="1060.000000" r="7.000000" fill="#FF8C00"/>
    <text x="55.000000" y="1060.000000" fill="white" font-family="Arial" font-size="8.400000"
          text-anchor="middle" dominant-baseline="central" font-weight="bold">E</text>
</g><g clip-path="url(#clip-name)">
<text x="66" y="1066" class="link-text">attendance-status</text>
</g>
<line x1="191" y1="1050" x2="191" y2="1076" stroke="#CCCCCC"/>
<g clip-path="url(#clip-flags)" transform="translate(199, 1063)"></g>
<line x1="241" y1="1050" x2="241" y2="1076" stroke="#CCCCCC"/>
<g clip-path="url(#clip-card)"><text x="249" y="1067" class="cell-text">0..1</text></g>
<line x1="296" y1="1050" x2="296" y2="1076" stroke="#CCCCCC"/>
<g clip-path="url(#clip-type)">
<text x="304" y="1066" class="link-text">Extension</text>
</g>
<line x1="516" y1="1050" x2="516" y2="1076" stroke="#CCCCCC"/>
<text x="524" y="1066" class="cell-text">Extension for clinical workflow: arrived, noshow, fulfilled</text>
<rect x="0" y="1076" width="908" height="26" fill="#FFFFFF"/>
<line x1="0" y1="1102" x2="908" y2="1102" stroke="#CCCCCC" stroke-width="0.5"/>
<line x1="18.000000" y1="1076.000000" x2="18.000000" y2="1086.000000" stroke="#CCCCCC" stroke-width="1.000000"/><line x1="18.000000" y1="1086.000000" x2="26.000000" y2="1086.000000" stroke="#CCCCCC" stroke-width="1.000000"/><polygon points="35.000000,1079.000000 42.000000,1086.000000 35.000000,1093.000000 28.000000,1086.000000"
        fill="#005EB8" stroke="#005EB8" stroke-width="0.5"/><g clip-path="url(#clip-name)">
<text x="46" y="1092" class="not-used">requestedPeriod</text>
</g>
<line x1="191" y1="1076" x2="191" y2="1102" stroke="#CCCCCC"/>
<g clip-path="url(#clip-flags)" transform="translate(199, 1089)"></g>
<line x1="241" y1="1076" x2="241" y2="1102" stroke="#CCCCCC"/>
<g clip-path="url(#clip-card)"><text x="249" y="1093" class="cell-text">0..*</text></g>
<line x1="296" y1="1076" x2="296" y2="1102" stroke="#CCCCCC"/>
<g clip-path="url(#clip-type)">
<text x="304" y="1092" class="link-text">Period</text>
</g>
<line x1="516" y1="1076" x2="516" y2="1102" stroke="#CCCCCC"/>
<text x="524" y="1092" class="not-used">Potential date/time intervals requested for appointment allocation</text>
</svg>